<?xml version="1.0" standalone="no"?>
<!DOCTYPE svg PUBLIC "-//W3C//DTD SVG 20010904//EN"
 "http://www.w3.org/TR/2001/REC-SVG-20010904/DTD/svg10.dtd">
<svg version="1.0" xmlns="http://www.w3.org/2000/svg" class='icon'
 width="512.000000pt" height="512.000000pt" viewBox="0 0 512.000000 512.000000"
 preserveAspectRatio="xMidYMid meet">

<g transform="translate(0.000000,512.000000) scale(0.100000,-0.100000)"
fill="#000000" stroke="none">
<path d="M2661 5105 c-261 -27 -620 -88 -822 -140 -207 -53 -434 -157 -572
-261 -157 -118 -308 -312 -412 -529 -59 -123 -91 -215 -134 -386 -16 -63 -48
-162 -71 -220 -99 -241 -107 -285 -70 -368 11 -24 54 -78 95 -120 41 -43 75
-86 75 -96 0 -24 -110 -234 -190 -363 -36 -56 -113 -169 -172 -250 -140 -192
-158 -243 -117 -328 26 -54 78 -102 165 -149 111 -61 134 -81 134 -118 0 -18
-20 -71 -45 -121 -34 -66 -45 -100 -45 -134 0 -43 4 -50 56 -99 54 -51 56 -54
45 -85 -18 -50 -14 -112 10 -142 11 -14 52 -46 91 -72 l71 -45 -7 -77 c-4 -42
-9 -107 -13 -143 -9 -113 31 -247 96 -321 93 -105 202 -129 381 -83 157 40
359 99 509 149 l134 46 37 -30 c113 -89 225 -283 290 -499 12 -41 32 -84 45
-97 l24 -24 1106 0 1107 0 29 29 c49 50 37 91 -71 251 -107 158 -175 355 -230
662 -70 391 -26 727 132 1011 59 106 81 141 196 295 167 225 237 352 292 530
49 161 55 210 54 442 -2 464 -96 808 -301 1091 -171 238 -574 532 -921 670
-292 117 -634 160 -981 124z m572 -185 c295 -52 589 -188 881 -408 348 -262
495 -519 561 -982 25 -176 30 -405 12 -525 -38 -248 -98 -367 -363 -735 -213
-294 -305 -532 -333 -857 -31 -353 93 -927 254 -1179 19 -30 35 -57 35 -59 0
-3 -435 -5 -967 -5 l-968 0 -29 83 c-41 119 -119 264 -198 368 -38 50 -68 93
-65 95 2 2 75 29 163 59 237 83 352 143 445 235 86 84 118 149 122 247 2 49
-1 57 -26 79 -15 13 -41 24 -56 24 -47 0 -70 -28 -88 -105 -14 -62 -21 -75
-72 -125 -37 -36 -85 -70 -141 -98 -157 -78 -1038 -371 -1271 -422 -115 -26
-176 10 -210 122 -22 73 -22 112 1 238 23 121 -31 239 -132 291 -44 22 -45 27
-18 71 24 40 25 86 2 114 -13 16 -56 51 -111 91 -2 1 13 36 34 77 46 91 57
181 31 251 -21 54 -82 110 -174 161 -90 49 -134 83 -128 100 3 7 44 66 92 131
215 289 404 628 404 722 0 71 -39 141 -120 219 -52 50 -70 75 -70 94 0 15 25
86 55 158 31 72 66 170 80 218 13 48 36 132 51 187 43 158 117 318 203 440
161 229 298 336 558 439 204 80 603 159 1038 205 134 14 380 5 518 -19z"/>
<path d="M3022 4680 c-34 -5 -63 -16 -77 -30 -22 -21 -25 -32 -27 -128 l-3
-104 -90 -39 c-49 -21 -95 -39 -100 -39 -6 0 -42 32 -80 70 -92 93 -112 94
-216 12 -82 -65 -183 -171 -230 -241 -42 -64 -35 -89 51 -176 l70 -70 -39 -95
-40 -95 -106 -5 c-101 -5 -108 -7 -130 -32 -27 -31 -39 -110 -39 -253 0 -143
12 -222 39 -253 22 -26 28 -27 130 -30 98 -4 107 -6 115 -25 5 -12 23 -55 40
-96 l32 -74 -71 -71 c-94 -95 -97 -112 -35 -196 55 -77 186 -206 251 -249 72
-48 93 -43 182 43 l76 74 35 -18 c19 -11 63 -29 98 -40 l62 -22 0 -104 c0 -97
2 -107 24 -129 31 -31 89 -40 256 -40 167 0 225 9 256 40 22 22 24 32 24 129
l0 104 63 22 c34 11 78 29 97 40 l35 18 76 -74 c89 -86 110 -91 182 -43 65 43
196 172 251 249 62 84 59 101 -35 196 l-71 71 32 74 c17 41 35 84 40 96 8 19
17 21 115 25 102 3 108 4 130 30 27 31 38 107 39 253 0 141 -12 221 -39 253
-22 25 -29 27 -130 32 l-106 5 -40 95 -39 95 70 70 c86 87 93 112 51 176 -47
70 -148 176 -230 241 -104 82 -124 81 -216 -12 -38 -38 -74 -70 -80 -70 -5 0
-50 18 -100 39 l-90 39 -3 104 c-3 129 -14 144 -113 158 -75 11 -271 11 -347
0z m288 -247 c0 -131 12 -150 120 -183 47 -15 122 -46 168 -69 62 -33 89 -41
109 -36 14 3 57 36 94 72 l68 65 36 -27 c20 -16 55 -51 80 -79 l44 -51 -70
-71 c-84 -88 -86 -99 -25 -221 24 -48 54 -120 65 -160 29 -96 40 -103 162
-103 l96 0 6 -54 c3 -29 3 -81 0 -115 l-6 -61 -96 0 c-123 0 -132 -6 -166
-112 -14 -44 -44 -116 -66 -159 -56 -112 -54 -126 30 -213 l69 -71 -41 -47
c-23 -25 -59 -61 -80 -78 l-38 -33 -73 72 c-54 52 -81 71 -100 71 -15 0 -59
-18 -99 -39 -40 -22 -111 -51 -159 -66 -117 -36 -122 -43 -126 -171 l-4 -104
-108 0 -108 0 -4 104 c-4 128 -9 135 -126 171 -48 15 -119 44 -159 66 -40 21
-84 39 -99 39 -19 0 -46 -19 -100 -71 l-73 -72 -38 33 c-21 17 -57 53 -80 78
l-41 47 69 71 c83 87 85 101 30 211 -22 43 -51 115 -66 160 -34 107 -43 113
-166 113 l-96 0 -6 58 c-3 31 -3 83 0 115 l6 57 96 0 c122 0 133 7 162 103 11
40 41 112 65 160 61 122 59 133 -26 221 l-69 72 43 50 c25 28 61 63 81 78 l36
28 68 -65 c37 -36 80 -69 94 -72 20 -5 47 3 109 36 46 23 121 54 168 69 108
33 120 52 120 183 l0 87 110 0 110 0 0 -87z"/>
<path d="M3075 3996 c-189 -46 -337 -183 -400 -369 -20 -59 -25 -96 -25 -169
0 -161 49 -280 164 -394 218 -217 554 -217 772 0 74 74 119 148 148 245 21 71
21 220 0 292 -84 286 -380 463 -659 395z m267 -186 c80 -30 159 -104 200 -188
31 -62 33 -74 33 -167 0 -87 -3 -107 -27 -157 -53 -114 -160 -195 -285 -218
-166 -29 -338 62 -411 218 -24 50 -27 70 -27 157 0 87 3 107 27 157 88 188
294 272 490 198z"/>
<path d="M1395 3985 c-20 -19 -25 -34 -25 -73 0 -43 -3 -50 -26 -61 -24 -10
-30 -8 -65 24 -58 52 -117 45 -144 -18 -15 -37 -6 -69 32 -109 19 -20 24 -33
19 -52 -5 -22 -12 -26 -46 -26 -57 0 -89 -16 -104 -51 -28 -67 13 -119 94
-119 43 0 48 -3 54 -26 5 -20 0 -33 -24 -60 -42 -49 -44 -95 -4 -131 37 -33
77 -30 122 11 34 31 41 34 63 23 20 -11 24 -21 27 -64 2 -42 8 -56 29 -73 61
-48 130 -9 140 78 8 73 33 83 86 36 45 -42 93 -46 124 -11 40 45 36 86 -14
139 -23 24 -25 31 -15 53 10 21 18 25 56 25 61 0 100 33 100 84 0 53 -29 78
-98 84 -48 4 -55 7 -61 30 -5 19 1 32 26 58 44 45 46 96 5 130 -40 35 -78 31
-125 -12 -34 -30 -43 -34 -60 -24 -14 7 -21 21 -21 41 0 99 -86 154 -145 94z
m114 -300 c30 -15 61 -69 61 -105 0 -29 -26 -76 -52 -94 -13 -9 -43 -16 -69
-16 -38 0 -53 6 -77 28 -101 95 14 251 137 187z"/>
<path d="M1565 3045 c-21 -21 -25 -33 -25 -88 l0 -64 -46 -18 -46 -17 -36 35
c-49 48 -87 62 -125 46 -33 -14 -56 -58 -50 -94 3 -12 24 -41 47 -64 l43 -42
-16 -45 -16 -44 -50 0 c-94 0 -152 -52 -129 -117 12 -37 66 -63 129 -63 l50 0
16 -44 16 -45 -43 -42 c-24 -23 -45 -52 -46 -63 -10 -58 46 -115 99 -101 13 3
44 24 68 46 l44 41 46 -17 45 -18 0 -64 c0 -55 4 -67 25 -88 31 -32 75 -32
110 -2 22 18 27 34 33 91 l7 69 43 16 42 15 43 -41 c51 -49 67 -55 107 -41 71
24 72 99 3 170 l-36 37 16 38 c15 38 15 38 82 45 83 8 115 33 115 88 0 55 -32
80 -115 88 -67 7 -67 7 -82 45 l-16 38 36 37 c69 71 68 146 -3 170 -40 14 -56
8 -107 -41 l-43 -41 -42 15 -43 16 -7 69 c-6 57 -11 73 -33 92 -35 29 -79 29
-110 -3z m132 -336 c87 -42 118 -149 68 -235 -59 -101 -193 -111 -272 -21 -56
64 -56 150 0 214 57 65 127 79 204 42z"/>
</g>
</svg>
